<?xml version="1.0" encoding="utf-8"?>
<!-- Generator: Adobe Illustrator 16.0.0, SVG Export Plug-In . SVG Version: 6.00 Build 0)  -->
<!DOCTYPE svg PUBLIC "-//W3C//DTD SVG 1.1//EN" "http://www.w3.org/Graphics/SVG/1.1/DTD/svg11.dtd">
<svg version="1.1" id="Calque_1" xmlns="http://www.w3.org/2000/svg" xmlns:xlink="http://www.w3.org/1999/xlink" x="0px" y="0px"
	 width="841.889px" height="843.084px" viewBox="0 0 841.889 843.084" enable-background="new 0 0 841.889 843.084"
	 xml:space="preserve">
<g>
	<path d="M79.365,421.483c0-10.136,4.873-19.133,12.375-24.753l262.188-200.9c0.568-0.446,1.168-0.896,1.764-1.346
		c4.755-3.378,10.583-5.381,16.892-5.381c16.084,0,29.148,13.034,29.148,29.146v406.583c0,16.084-13.064,29.148-29.148,29.148
		c-5.829,0-11.301-1.734-15.844-4.693c-0.028,0-0.028,0-0.028-0.029l-3.439-2.631L91.742,446.235
		C84.239,440.614,79.365,431.616,79.365,421.483z"/>
	<path d="M67.649,524.778c0,15.656,11.041,28.348,24.662,28.348h161.478c13.62,0,24.661-12.691,24.661-28.348V321.087
		c0-15.655-11.041-28.346-24.661-28.346H92.31c-13.621,0-24.662,12.691-24.662,28.346V524.778z"/>
	<path d="M679.717,621.454c-5.118,0-10.237-1.951-14.143-5.857c-7.811-7.811-7.811-20.475,0-28.285
		c44.28-44.279,68.666-103.15,68.666-165.771c0-62.62-24.386-121.492-68.665-165.771c-7.811-7.811-7.812-20.474-0.001-28.284
		s20.474-7.811,28.284,0c51.835,51.834,80.382,120.751,80.382,194.055s-28.547,142.222-80.381,194.056
		C689.954,619.503,684.835,621.454,679.717,621.454z"/>
	<path d="M582.067,573.044c-5.119,0-10.236-1.953-14.143-5.859c-7.811-7.811-7.81-20.473,0.001-28.283
		c30.987-30.988,48.053-72.188,48.053-116.01c0-43.822-17.065-85.021-48.053-116.008c-7.811-7.81-7.812-20.474-0.001-28.284
		s20.474-7.811,28.284,0c38.543,38.542,59.77,89.786,59.77,144.292c0,54.508-21.227,105.752-59.77,144.295
		C592.304,571.091,587.185,573.044,582.067,573.044z"/>
	<path d="M484.567,522.647c-5.119,0-10.236-1.951-14.143-5.857c-7.811-7.811-7.81-20.475,0.001-28.285
		c17.526-17.525,27.179-40.828,27.179-65.613s-9.652-48.087-27.179-65.613c-7.811-7.81-7.812-20.474-0.001-28.284
		s20.474-7.811,28.284,0c25.082,25.081,38.896,58.428,38.896,93.897c0,35.471-13.813,68.818-38.896,93.898
		C494.804,520.694,489.685,522.647,484.567,522.647z"/>
</g>
</svg>
