<?xml version="1.0" encoding="utf-8"?>
<!-- Generator: Adobe Illustrator 16.0.0, SVG Export Plug-In . SVG Version: 6.00 Build 0)  -->
<!DOCTYPE svg PUBLIC "-//W3C//DTD SVG 1.1//EN" "http://www.w3.org/Graphics/SVG/1.1/DTD/svg11.dtd">
<svg version="1.1" id="Calque_1" xmlns="http://www.w3.org/2000/svg" xmlns:xlink="http://www.w3.org/1999/xlink" x="0px" y="0px"
	 width="841.889px" height="843.084px" viewBox="0 0 841.889 843.084" enable-background="new 0 0 841.889 843.084"
	 xml:space="preserve">
<g>
	<g>
		<path d="M128.222,666.991c-6.225-3.099-10.161-9.454-10.161-16.408v-81.075c-23.471-1.088-42.232-20.525-42.232-44.26v-216.1
			c0-24.432,19.876-44.309,44.309-44.309h337.07c24.431,0,44.309,19.877,44.309,44.309v216.1c0,24.432-19.878,44.309-44.309,44.309
			H274.052l-126.613,95.652c-3.243,2.45-7.134,3.704-11.05,3.704C133.606,668.913,130.809,668.279,128.222,666.991z
			 M120.137,301.499c-4.218,0-7.649,3.431-7.649,7.649v216.1c0,4.218,3.431,7.649,7.649,7.649h16.254
			c10.123,0,18.329,8.206,18.329,18.329v62.537l102.138-77.162c3.182-2.404,7.061-3.704,11.048-3.704h189.301
			c4.218,0,7.649-3.432,7.649-7.649v-216.1c0-4.218-3.432-7.649-7.649-7.649H120.137z"/>
		<g>
			<circle cx="384.144" cy="415.594" r="24.125"/>
			<circle cx="288.673" cy="415.594" r="24.124"/>
			<circle cx="193.201" cy="415.594" r="24.125"/>
		</g>
	</g>
	<g>
		<path d="M721.749,174.171H384.683c-24.438,0-44.312,19.884-44.312,44.312v216.096c0,24.437,19.874,44.311,44.312,44.311h183.155
			l126.606,95.657c3.252,2.449,7.14,3.699,11.058,3.699c2.783,0,5.575-0.635,8.16-1.918c6.232-3.105,10.161-9.452,10.161-16.413
			v-81.067c23.479-1.094,42.236-20.53,42.236-44.269V218.483C766.06,194.054,746.187,174.171,721.749,174.171z M729.399,434.579
			c0,4.219-3.43,7.648-7.649,7.648h-16.257c-10.12,0-18.32,8.211-18.32,18.331v62.538l-102.14-77.159
			c-3.179-2.407-7.066-3.71-11.048-3.71H384.683c-4.221,0-7.649-3.43-7.649-7.648V218.483c0-4.222,3.428-7.65,7.649-7.65h337.066
			c4.22,0,7.649,3.429,7.649,7.65V434.579z"/>
		<path fill="#FFFFFF" d="M721.749,210.832H384.683c-4.221,0-7.649,3.429-7.649,7.65v216.096c0,4.219,3.428,7.648,7.649,7.648
			h189.302c3.981,0,7.869,1.303,11.048,3.71l102.14,77.159v-62.538c0-10.12,8.2-18.331,18.32-18.331h16.257
			c4.22,0,7.649-3.43,7.649-7.648V218.483C729.399,214.261,725.969,210.832,721.749,210.832z M457.746,349.051
			c-13.329,0-24.125-10.796-24.125-24.125c0-13.319,10.796-24.114,24.125-24.114c13.318,0,24.126,10.795,24.126,24.114
			C481.872,338.254,471.065,349.051,457.746,349.051z M553.215,349.051c-13.327,0-24.125-10.796-24.125-24.125
			c0-13.319,10.798-24.114,24.125-24.114c13.32,0,24.126,10.795,24.126,24.114C577.341,338.254,566.535,349.051,553.215,349.051z
			 M648.686,349.051c-13.319,0-24.125-10.796-24.125-24.125c0-13.319,10.806-24.114,24.125-24.114
			c13.328,0,24.124,10.795,24.124,24.114C672.81,338.254,662.014,349.051,648.686,349.051z"/>
		<g>
			<path d="M481.872,324.925c0,13.329-10.808,24.125-24.126,24.125c-13.329,0-24.125-10.796-24.125-24.125
				c0-13.319,10.796-24.114,24.125-24.114C471.065,300.811,481.872,311.606,481.872,324.925z"/>
			<path d="M577.341,324.925c0,13.329-10.806,24.125-24.126,24.125c-13.327,0-24.125-10.796-24.125-24.125
				c0-13.319,10.798-24.114,24.125-24.114C566.535,300.811,577.341,311.606,577.341,324.925z"/>
			<path d="M672.81,324.925c0,13.329-10.796,24.125-24.124,24.125c-13.319,0-24.125-10.796-24.125-24.125
				c0-13.319,10.806-24.114,24.125-24.114C662.014,300.811,672.81,311.606,672.81,324.925z"/>
		</g>
	</g>
</g>
</svg>
