<?xml version="1.0" encoding="utf-8"?>
<!-- Generator: Adobe Illustrator 16.0.0, SVG Export Plug-In . SVG Version: 6.00 Build 0)  -->
<!DOCTYPE svg PUBLIC "-//W3C//DTD SVG 1.1//EN" "http://www.w3.org/Graphics/SVG/1.1/DTD/svg11.dtd">
<svg version="1.1" id="Calque_1" xmlns="http://www.w3.org/2000/svg" xmlns:xlink="http://www.w3.org/1999/xlink" x="0px" y="0px"
	 width="841.889px" height="843.084px" viewBox="0 0 841.889 843.084" enable-background="new 0 0 841.889 843.084"
	 xml:space="preserve">
<g>
	<path d="M641.878,628.332c-4.477,0-8.955-1.707-12.371-5.123c-6.833-6.834-6.833-17.91,0-24.744
		c38.735-38.734,60.067-90.234,60.067-145.014c0-54.779-21.332-106.279-60.066-145.014c-6.833-6.833-6.834-17.91-0.001-24.743
		c6.833-6.832,17.91-6.832,24.742,0c45.345,45.344,70.317,105.631,70.317,169.757c0,64.125-24.973,124.414-70.316,169.758
		C650.833,626.625,646.356,628.332,641.878,628.332z"/>
	<path d="M556.455,585.984c-4.479,0-8.955-1.709-12.371-5.127c-6.833-6.832-6.832-17.908,0-24.74
		c27.107-27.109,42.037-63.148,42.037-101.484c0-38.334-14.93-74.375-42.037-101.482c-6.832-6.832-6.833-17.91,0-24.742
		c6.832-6.833,17.909-6.833,24.741,0c33.718,33.716,52.287,78.543,52.287,126.225c0,47.682-18.569,92.51-52.287,126.227
		C565.411,584.275,560.933,585.984,556.455,585.984z"/>
	<path d="M471.164,541.898c-4.479,0-8.955-1.707-12.372-5.125c-6.832-6.832-6.832-17.91,0.001-24.742
		c15.332-15.332,23.775-35.717,23.775-57.398c0-21.681-8.443-42.065-23.775-57.397c-6.833-6.832-6.833-17.91-0.001-24.742
		c6.833-6.833,17.91-6.833,24.742,0c21.942,21.939,34.025,51.111,34.025,82.14c0,31.029-12.083,60.201-34.025,82.141
		C480.119,540.189,475.641,541.898,471.164,541.898z"/>
	<path fill="none" stroke="#000000" stroke-width="40" stroke-linecap="round" stroke-miterlimit="10" d="M385.771,361.51
		c95.995-193.454-74.389-243.805-157.079-218.19c-82.69,25.615-134.453,115.157-101.131,222.727
		c8.734,28.197,17.567,65.524,27.117,103.905s17.813,63.983,17.404,87.517c-1.28,73.614,50.243,148.483,130.596,148.483
		s129.378-52,100-142.092"/>
	<path fill="none" stroke="#000000" stroke-width="40" stroke-linecap="round" stroke-miterlimit="10" d="M316.677,317.951
		c12.875-33.603-14.448-61.613-46-64c-39.702-3.004-59.685,11.443-68.053,47.947c-8.664,37.792,28.13,72.821,40.106,108.548
		c11.417,34.061-0.544,100.604,28.502,125.106c10.968,9.252,32.017,13.576,39.445-1.602"/>
	<path fill="none" stroke="#000000" stroke-width="40" stroke-linecap="round" stroke-miterlimit="10" d="M324.677,391.951
		c-12.66,6.888-25.566,39.119-14.495,52.542c9.764,11.838,48.495,35.458,62.495-6.542"/>
</g>
</svg>
