<?xml version="1.0" encoding="utf-8"?>
<!-- Generator: Adobe Illustrator 16.0.0, SVG Export Plug-In . SVG Version: 6.00 Build 0)  -->
<!DOCTYPE svg PUBLIC "-//W3C//DTD SVG 1.1//EN" "http://www.w3.org/Graphics/SVG/1.1/DTD/svg11.dtd">
<svg version="1.1" id="Calque_1" xmlns="http://www.w3.org/2000/svg" xmlns:xlink="http://www.w3.org/1999/xlink" x="0px" y="0px"
	 width="841.889px" height="843.084px" viewBox="0 0 841.889 843.084" enable-background="new 0 0 841.889 843.084"
	 xml:space="preserve">
<path fill="#1D1D1B" d="M719.349,300.757L575.918,154.489c-22.852-23.31-60.401-23.678-83.7-0.827L123.355,515.367
	c-23.298,22.852-23.667,60.401-0.815,83.699l61.361,62.579h-53.23c-12.342,0-22.337,10.007-22.337,22.338
	c0,12.341,9.996,22.338,22.337,22.338h97.046h78.014h5.004h79.566h87.151c12.341,0,22.338-9.997,22.338-22.338
	c0-12.331-9.997-22.338-22.338-22.338H435.86l282.674-277.189C741.831,361.605,742.2,324.054,719.349,300.757z M261.928,661.645
	l-99.615-101.581c-1.352-1.373-1.329-3.585,0.045-4.926l100.015-98.071l148.313,151.247l0,0l-54.393,53.331H261.928z"/>
</svg>
