<?xml version="1.0" encoding="utf-8"?>
<!-- Generator: Adobe Illustrator 16.0.0, SVG Export Plug-In . SVG Version: 6.00 Build 0)  -->
<!DOCTYPE svg PUBLIC "-//W3C//DTD SVG 1.1//EN" "http://www.w3.org/Graphics/SVG/1.1/DTD/svg11.dtd">
<svg version="1.1" id="Calque_1" xmlns="http://www.w3.org/2000/svg" xmlns:xlink="http://www.w3.org/1999/xlink" x="0px" y="0px"
	 width="841.889px" height="843.084px" viewBox="0 0 841.889 843.084" enable-background="new 0 0 841.889 843.084"
	 xml:space="preserve">
<g>
	<path d="M237.106,718.706c-13.084,15.629-36.363,17.691-51.992,4.607l-19.77-16.551c-15.63-13.086-17.692-36.363-4.607-51.992
		l444.047-530.392c13.084-15.63,36.361-17.692,51.99-4.607l19.771,16.552c15.629,13.085,17.691,36.362,4.607,51.992L237.106,718.706
		z"/>
	<path d="M681.671,654.192c13.119,15.6,11.109,38.881-4.492,52.002l-19.732,16.596c-15.602,13.119-38.883,11.107-52.002-4.492
		L160.219,188.895c-13.121-15.6-11.11-38.881,4.491-52.001l19.734-16.596c15.6-13.119,38.882-11.108,52.001,4.492L681.671,654.192z"
		/>
</g>
</svg>
