<?xml version="1.0" encoding="utf-8"?>
<!-- Generator: Adobe Illustrator 16.0.0, SVG Export Plug-In . SVG Version: 6.00 Build 0)  -->
<!DOCTYPE svg PUBLIC "-//W3C//DTD SVG 1.1//EN" "http://www.w3.org/Graphics/SVG/1.1/DTD/svg11.dtd">
<svg version="1.1" id="Calque_1" xmlns="http://www.w3.org/2000/svg" xmlns:xlink="http://www.w3.org/1999/xlink" x="0px" y="0px"
	 width="841.889px" height="843.084px" viewBox="0 0 841.889 843.084" enable-background="new 0 0 841.889 843.084"
	 xml:space="preserve">
<path d="M602.804,779.781h-363.72c-41.122,0-74.577-33.455-74.577-74.577V137.878c0-41.121,33.455-74.577,74.577-74.577h261.157
	c8.766,0,17.116,3.729,22.969,10.255c5.852,6.525,8.651,15.233,7.699,23.947l-13.552,124.027l120.832-33.928
	c9.292-2.61,19.277-0.718,26.974,5.115c7.696,5.832,12.217,14.932,12.217,24.587v487.899
	C677.38,746.326,643.925,779.781,602.804,779.781z M239.084,125.003c-7.1,0-12.875,5.775-12.875,12.875v567.326
	c0,7.1,5.775,12.875,12.875,12.875h363.72c7.1,0,12.875-5.775,12.875-12.875V258.011L490.07,293.281
	c-9.863,2.768-20.464,0.461-28.283-6.165c-7.818-6.625-11.838-16.701-10.725-26.888l14.774-135.224H239.084z"/>
<path d="M481.732,294.43c-7.217,0-14.303-2.534-19.945-7.314c-7.818-6.625-11.838-16.701-10.725-26.888l18.511-169.426
	c1.238-11.326,8.616-21.048,19.192-25.286c10.577-4.238,22.628-2.301,31.346,5.036l146.288,123.153
	c8.743,7.361,12.7,18.952,10.284,30.123c-2.416,11.17-10.81,20.091-21.814,23.18L490.07,293.281
	C487.323,294.052,484.517,294.43,481.732,294.43z M524.626,155.009l-7.267,66.521l64.704-18.168L524.626,155.009z"/>
<path d="M540.991,395.461H297.687c-12.779,0-23.138-10.359-23.138-23.138s10.359-23.138,23.138-23.138h243.304
	c12.779,0,23.139,10.359,23.139,23.138S553.771,395.461,540.991,395.461z"/>
<path d="M540.991,476.441H297.687c-12.779,0-23.138-10.359-23.138-23.139c0-12.778,10.359-23.138,23.138-23.138h243.304
	c12.779,0,23.139,10.359,23.139,23.138C564.13,466.082,553.771,476.441,540.991,476.441z"/>
<path d="M540.991,557.422H297.687c-12.779,0-23.138-10.359-23.138-23.139c0-12.778,10.359-23.138,23.138-23.138h243.304
	c12.779,0,23.139,10.359,23.139,23.138C564.13,547.062,553.771,557.422,540.991,557.422z"/>
</svg>
