<?xml version="1.0" encoding="utf-8"?>
<!-- Generator: Adobe Illustrator 16.0.0, SVG Export Plug-In . SVG Version: 6.00 Build 0)  -->
<!DOCTYPE svg PUBLIC "-//W3C//DTD SVG 1.1//EN" "http://www.w3.org/Graphics/SVG/1.1/DTD/svg11.dtd">
<svg version="1.1" id="Calque_1" xmlns="http://www.w3.org/2000/svg" xmlns:xlink="http://www.w3.org/1999/xlink" x="0px" y="0px"
	 width="841.889px" height="843.084px" viewBox="0 0 841.889 843.084" enable-background="new 0 0 841.889 843.084"
	 xml:space="preserve">
<g>
	<g>
		<g>
			<path d="M394.929,519.909c0,7.384-0.462,14.663-1.363,21.808c-40.569,35.186-101.277,57.54-169.121,57.54
				c-67.843,0-128.546-22.354-169.115-57.54c-0.901-7.145-1.362-14.424-1.362-21.808c0-94.806,76.328-171.656,170.477-171.656
				C318.6,348.253,394.929,425.103,394.929,519.909z"/>
			<path fill="#FFFFFF" d="M224.445,348.253c94.155,0,170.484,76.851,170.484,171.656c0,7.384-0.462,14.663-1.363,21.808
				c-40.569,35.186-101.277,57.54-169.121,57.54c-67.843,0-128.546-22.354-169.115-57.54c-0.901-7.145-1.362-14.424-1.362-21.808
				C53.968,425.103,130.296,348.253,224.445,348.253 M224.445,330.17c-25.463,0-50.172,5.024-73.443,14.935
				c-22.458,9.565-42.623,23.252-59.933,40.682c-17.301,17.421-30.886,37.709-40.377,60.302
				c-9.825,23.393-14.808,48.229-14.808,73.821c0,8.054,0.506,16.153,1.503,24.069l0.865,6.866l5.228,4.534
				c22.332,19.368,49.33,34.637,80.241,45.385c31.643,11,65.531,16.577,100.723,16.577s69.081-5.577,100.726-16.577
				c30.479-10.597,58.227-26.29,80.243-45.385l5.228-4.534l0.866-6.866c0.998-7.92,1.504-16.018,1.504-24.069
				c0-25.592-4.982-50.43-14.808-73.821c-9.491-22.593-23.076-42.882-40.378-60.302c-17.311-17.43-37.476-31.116-59.937-40.682
				C274.619,335.194,249.908,330.17,224.445,330.17L224.445,330.17z"/>
		</g>
		<g>
			<circle cx="224.446" cy="281.532" r="112.594"/>
			<path fill="#FFFFFF" d="M224.446,168.939c62.184,0,112.593,50.409,112.593,112.593c0,62.185-50.41,112.594-112.593,112.594
				s-112.594-50.409-112.594-112.594C111.852,219.348,162.262,168.939,224.446,168.939 M224.446,150.855
				c-17.633,0-34.749,3.458-50.871,10.276c-15.562,6.582-29.537,16.003-41.532,27.998c-11.995,11.995-21.415,25.969-27.998,41.532
				c-6.819,16.122-10.276,33.237-10.276,50.87c0,17.634,3.458,34.749,10.276,50.871c6.583,15.563,16.003,29.537,27.998,41.531
				c11.996,11.996,25.97,21.416,41.532,27.999c16.122,6.818,33.238,10.276,50.871,10.276c17.633,0,34.749-3.458,50.872-10.276
				c15.562-6.583,29.536-16.003,41.531-27.999c11.995-11.994,21.416-25.968,27.998-41.531c6.819-16.122,10.277-33.237,10.277-50.871
				c0-17.633-3.458-34.748-10.277-50.87c-6.582-15.563-16.002-29.537-27.998-41.532s-25.968-21.416-41.531-27.998
				C259.195,154.313,242.079,150.855,224.446,150.855L224.446,150.855z"/>
		</g>
	</g>
	<g>
		<g>
			<path d="M787.921,493.97c0,7.384-0.461,14.662-1.363,21.808c-40.568,35.186-101.277,57.541-169.121,57.541
				c-67.842,0-128.545-22.355-169.113-57.541c-0.9-7.146-1.363-14.424-1.363-21.808c0-94.806,76.328-171.656,170.477-171.656
				C711.593,322.314,787.921,399.165,787.921,493.97z"/>
			<path fill="#FFFFFF" d="M617.437,322.314c94.156,0,170.484,76.851,170.484,171.656c0,7.384-0.461,14.662-1.363,21.808
				c-40.568,35.186-101.277,57.541-169.121,57.541c-67.842,0-128.545-22.355-169.113-57.541c-0.9-7.146-1.363-14.424-1.363-21.808
				C446.96,399.165,523.288,322.314,617.437,322.314 M617.437,304.23c-25.463,0-50.17,5.025-73.441,14.936
				c-22.459,9.564-42.623,23.252-59.934,40.682c-17.301,17.421-30.885,37.709-40.377,60.301
				c-9.825,23.393-14.807,48.229-14.807,73.822c0,8.054,0.506,16.152,1.503,24.068l0.865,6.867l5.228,4.533
				c22.332,19.369,49.328,34.638,80.24,45.385c31.645,11,65.531,16.577,100.723,16.577c35.193,0,69.084-5.577,100.727-16.577
				c30.48-10.595,58.229-26.289,80.244-45.385l5.227-4.533l0.867-6.867c0.998-7.919,1.504-16.018,1.504-24.068
				c0-25.593-4.982-50.431-14.809-73.822c-9.49-22.592-23.076-42.881-40.379-60.301c-17.309-17.43-37.475-31.117-59.934-40.682
				C667.613,309.256,642.902,304.23,617.437,304.23L617.437,304.23z"/>
		</g>
		<g>
			<circle cx="617.439" cy="255.593" r="112.594"/>
			<path fill="#FFFFFF" d="M617.439,143.001c62.184,0,112.594,50.409,112.594,112.592c0,62.185-50.41,112.595-112.594,112.595
				s-112.594-50.41-112.594-112.595C504.845,193.41,555.255,143.001,617.439,143.001 M617.439,124.917
				c-17.635,0-34.748,3.457-50.871,10.276c-15.561,6.582-29.537,16.003-41.531,27.998s-21.414,25.968-27.998,41.531
				c-6.818,16.122-10.277,33.237-10.277,50.87c0,17.634,3.459,34.75,10.277,50.871c6.584,15.563,16.004,29.537,27.998,41.532
				s25.971,21.415,41.531,27.998c16.123,6.818,33.236,10.276,50.871,10.276c17.633,0,34.75-3.458,50.871-10.276
				c15.564-6.583,29.537-16.003,41.531-27.998c11.996-11.995,21.414-25.969,27.998-41.532c6.818-16.121,10.277-33.237,10.277-50.871
				c0-17.633-3.459-34.748-10.277-50.87c-6.584-15.563-16.002-29.536-27.998-41.531c-11.994-11.995-25.967-21.416-41.531-27.998
				C652.189,128.374,635.072,124.917,617.439,124.917L617.439,124.917z"/>
		</g>
	</g>
	<g>
		<g>
			<path d="M637.181,621.705c0,8.827-0.553,17.526-1.629,26.068c-48.492,42.059-121.059,68.778-202.154,68.778
				c-81.093,0-153.653-26.72-202.147-68.778c-1.077-8.542-1.628-17.241-1.628-26.068c0-113.323,91.236-205.184,203.775-205.184
				C545.945,416.521,637.181,508.382,637.181,621.705z"/>
			<path fill="#FFFFFF" d="M433.398,416.521c112.547,0,203.783,91.86,203.783,205.184c0,8.827-0.553,17.526-1.629,26.068
				c-48.492,42.059-121.059,68.778-202.154,68.778c-81.093,0-153.653-26.72-202.147-68.778c-1.077-8.542-1.628-17.241-1.628-26.068
				C229.623,508.382,320.859,416.521,433.398,416.521 M433.398,394.905c-30.436,0-59.971,6.007-87.787,17.853
				c-26.846,11.432-50.949,27.793-71.64,48.626c-20.681,20.824-36.918,45.075-48.263,72.081
				c-11.746,27.962-17.701,57.649-17.701,88.24c0,9.627,0.605,19.309,1.798,28.771l1.034,8.208l6.249,5.419
				c26.694,23.152,58.964,41.404,95.914,54.25c37.823,13.147,78.331,19.814,120.396,19.814c42.066,0,82.576-6.667,120.4-19.814
				c36.432-12.666,69.6-31.425,95.916-54.25l6.25-5.419l1.033-8.207c1.193-9.468,1.801-19.147,1.801-28.771
				c0-30.591-5.957-60.279-17.703-88.24c-11.344-27.006-27.582-51.257-48.264-72.081c-20.691-20.833-44.795-37.194-71.643-48.626
				C493.372,400.912,463.835,394.905,433.398,394.905L433.398,394.905z"/>
		</g>
		<g>
			<circle cx="433.4" cy="336.768" r="134.586"/>
			<path fill="#FFFFFF" d="M433.4,202.182c74.33,0,134.586,60.256,134.586,134.586c0,74.329-60.256,134.585-134.586,134.585
				c-74.33,0-134.586-60.256-134.586-134.585C298.814,262.438,359.07,202.182,433.4,202.182 M433.4,180.567
				c-21.078,0-41.536,4.133-60.807,12.283c-18.603,7.868-35.306,19.129-49.644,33.467c-14.338,14.339-25.598,31.04-33.467,49.644
				c-8.151,19.271-12.284,39.729-12.284,60.808c0,21.077,4.133,41.536,12.284,60.807c7.869,18.604,19.128,35.306,33.467,49.645
				c14.338,14.338,31.041,25.598,49.644,33.467c19.271,8.15,39.73,12.283,60.808,12.283c21.078,0,41.535-4.133,60.807-12.283
				c18.604-7.869,35.305-19.129,49.643-33.467c14.34-14.339,25.6-31.041,33.467-49.645c8.15-19.271,12.285-39.729,12.285-60.807
				c0-21.078-4.135-41.536-12.285-60.808c-7.867-18.604-19.127-35.305-33.467-49.644c-14.338-14.338-31.039-25.599-49.643-33.467
				C474.935,184.7,454.478,180.567,433.4,180.567L433.4,180.567z"/>
		</g>
	</g>
</g>
</svg>
