<?xml version="1.0" encoding="utf-8"?>
<!-- Generator: Adobe Illustrator 16.0.0, SVG Export Plug-In . SVG Version: 6.00 Build 0)  -->
<!DOCTYPE svg PUBLIC "-//W3C//DTD SVG 1.1//EN" "http://www.w3.org/Graphics/SVG/1.1/DTD/svg11.dtd">
<svg version="1.1" id="Calque_1" xmlns="http://www.w3.org/2000/svg" xmlns:xlink="http://www.w3.org/1999/xlink" x="0px" y="0px"
	 width="841.889px" height="843.084px" viewBox="0 0 841.889 843.084" enable-background="new 0 0 841.889 843.084"
	 xml:space="preserve">
<g>
	<path d="M688.906,663.784H152.983c-38.846,0-70.449-31.604-70.449-70.449V249.748c0-38.846,31.604-70.449,70.449-70.449h535.923
		c38.847,0,70.449,31.603,70.449,70.449v343.587C759.355,632.179,727.752,663.784,688.906,663.784z M152.983,237.585
		c-6.707,0-12.163,5.456-12.163,12.163v343.587c0,6.707,5.456,12.163,12.163,12.163h535.923c6.707,0,12.163-5.456,12.163-12.163
		V249.748c0-6.707-5.456-12.163-12.163-12.163H152.983z"/>
	<path d="M420.945,450.685c-5.671,0-11.343-1.654-16.259-4.958L106.804,245.472c-13.357-8.98-16.906-27.087-7.927-40.445
		c8.98-13.357,27.088-16.907,40.446-7.927l281.622,189.325L702.566,197.1c13.356-8.979,31.465-5.431,40.445,7.927
		c8.979,13.358,5.431,31.465-7.927,40.445l-297.88,200.255C432.287,449.031,426.617,450.685,420.945,450.685z"/>
</g>
</svg>
