<?xml version="1.0" encoding="utf-8"?>
<!-- Generator: Adobe Illustrator 16.0.0, SVG Export Plug-In . SVG Version: 6.00 Build 0)  -->
<!DOCTYPE svg PUBLIC "-//W3C//DTD SVG 1.1//EN" "http://www.w3.org/Graphics/SVG/1.1/DTD/svg11.dtd">
<svg version="1.1" id="Calque_1" xmlns="http://www.w3.org/2000/svg" xmlns:xlink="http://www.w3.org/1999/xlink" x="0px" y="0px"
	 width="841.889px" height="843.084px" viewBox="0 0 841.889 843.084" enable-background="new 0 0 841.889 843.084"
	 xml:space="preserve">
<g>
	<g>
		<path d="M477.163,126.993c4.802,0,9.065,2.309,11.729,5.863l95.184,124.223c0.213,0.27,0.426,0.552,0.639,0.836
			c1.6,2.252,2.549,5.013,2.549,8.002c0,7.621-6.176,13.811-13.809,13.811H380.816c-7.619,0-13.809-6.19-13.809-13.811
			c0-2.761,0.82-5.354,2.223-7.506c0-0.014,0-0.014,0.014-0.014l1.246-1.629l94.948-123.912
			C468.098,129.302,472.363,126.993,477.163,126.993z"/>
		<path d="M437.58,249.573c0-9.914,11.812-17.949,26.383-17.949h26.345c14.568,0,26.381,8.035,26.381,17.949v171.8
			c0,9.913-11.812,17.95-26.381,17.95h-26.345c-14.57,0-26.383-8.037-26.383-17.95V249.573z"/>
	</g>
	<path d="M372.924,351.8c0,11.04-8.96,20-20,20c-11.05,0-20-8.96-20-20c0-3.13-0.08-6.2-0.24-9.2
		c-1.46-27.04-9.42-48.92-23.24-63.64c-14.35-15.28-35.03-23.44-61.51-24.29l-100.59,50.91c16.69,6.76,32.15,16.27,45.37,28.14
		c20.84,18.71,35.27,42.17,42.3,68.2c1.54,5.68,2.73,11.49,3.54,17.4c0.92,6.549,1.38,13.229,1.38,20c0,11.049-8.95,20-20,20
		c-11.04,0-20-8.951-20-20c0-5.111-0.37-10.141-1.1-15.08c-3.41-23.361-14.77-44.541-32.83-60.75
		c-21.07-18.91-49.88-29.75-79.05-29.75c-9.26,0-17.3-6.36-19.45-15.36c-2.15-9,2.16-18.31,10.42-22.49l156.35-79.13
		c2.8-1.42,5.89-2.16,9.03-2.16c39.63,0,72.59,12.79,95.3,36.98c19.28,20.54,30.76,49,33.61,83.01
		C372.684,340.18,372.924,345.92,372.924,351.8z"/>
	<path d="M734.013,348.6c-0.049-0.17-0.109-0.35-0.17-0.52c-0.09-0.25-0.18-0.5-0.279-0.75c-0.141-0.37-0.289-0.73-0.459-1.09
		c-0.08-0.17-0.16-0.34-0.24-0.5c-0.111-0.23-0.23-0.45-0.352-0.67c-0.1-0.19-0.209-0.38-0.318-0.57
		c-0.432-0.76-0.92-1.48-1.471-2.17c-0.25-0.32-0.51-0.64-0.779-0.96c-0.021-0.01-0.041-0.03-0.051-0.05
		c-0.289-0.32-0.59-0.64-0.91-0.95c-0.311-0.31-0.629-0.61-0.971-0.9c-0.318-0.28-0.648-0.55-0.988-0.81
		c-0.031-0.02-0.061-0.05-0.102-0.08c-0.299-0.22-0.6-0.43-0.92-0.64c-0.049-0.04-0.1-0.07-0.148-0.1
		c-0.271-0.18-0.541-0.35-0.82-0.51c-0.041-0.03-0.08-0.05-0.131-0.07c-0.18-0.11-0.35-0.21-0.529-0.3
		c-0.641-0.35-1.301-0.65-1.971-0.92c-0.199-0.08-0.4-0.16-0.609-0.23c-0.82-0.31-1.67-0.55-2.52-0.74
		c-0.191-0.04-0.371-0.08-0.551-0.12c-0.211-0.04-0.42-0.07-0.631-0.11c-0.209-0.03-0.42-0.06-0.629-0.09
		c-0.15-0.02-0.301-0.04-0.451-0.05c-0.17-0.02-0.328-0.03-0.5-0.05c-0.25-0.02-0.488-0.03-0.738-0.04
		c-0.281-0.01-0.561-0.02-0.84-0.02H351.464c-3.67,0-7.26,1.01-10.39,2.91l-8.39,5.1l-97.67,59.32l-33.43,20.311
		c-0.98,0.6-1.9,1.27-2.75,2.01c0.73,4.939,1.1,9.969,1.1,15.08V455.3c3.38,2.551,7.58,4.021,12.03,4.021h363.481
		c3.66,0,7.25-1,10.379-2.9l2.961-1.801l6.66-4.039v-0.01l99.49-60.431l30.379-18.45c6.08-3.69,9.621-10.24,9.621-17.1
		C734.935,352.53,734.615,350.51,734.013,348.6z M569.843,419.321H283.424l73.63-44.73h286.43L569.843,419.321z"/>
	<path d="M575.441,716.087c-3.379,0-6.76-0.854-9.807-2.568c-6.297-3.543-10.193-10.207-10.193-17.432V439.323
		c0-6.986,3.645-13.467,9.617-17.094L704.55,337.5c6.174-3.751,13.893-3.879,20.189-0.337s10.193,10.206,10.193,17.431v256.764
		c0,6.986-3.646,13.467-9.617,17.094L585.823,713.18C582.638,715.116,579.04,716.087,575.441,716.087z M595.441,450.575v209.963
		l99.492-60.432V390.142L595.441,450.575z"/>
	<g>
		<rect x="219.938" y="439.323" fill="#FFFFFF" width="348.848" height="256.764"/>
		<path d="M569.794,419.35c-0.34-0.02-0.67-0.029-1.01-0.029H219.934c-11.04,0-20,8.959-20,20v256.77c0,11.039,8.96,20,20,20
			h348.851c1.129,0,2.24-0.09,3.32-0.281c9.469-1.578,16.68-9.809,16.68-19.719v-256.77
			C588.784,428.62,580.374,419.87,569.794,419.35z M548.784,676.091H239.934v-216.77h308.851V676.091z"/>
	</g>
</g>
</svg>
