<?xml version="1.0" encoding="utf-8"?>
<!-- Generator: Adobe Illustrator 16.0.0, SVG Export Plug-In . SVG Version: 6.00 Build 0)  -->
<!DOCTYPE svg PUBLIC "-//W3C//DTD SVG 1.1//EN" "http://www.w3.org/Graphics/SVG/1.1/DTD/svg11.dtd">
<svg version="1.1" id="Calque_1" xmlns="http://www.w3.org/2000/svg" xmlns:xlink="http://www.w3.org/1999/xlink" x="0px" y="0px"
	 width="841.889px" height="843.084px" viewBox="0 0 841.889 843.084" enable-background="new 0 0 841.889 843.084"
	 xml:space="preserve">
<g>
	<path d="M656.628,609.296c0,10.209-0.639,20.271-1.884,30.149c-56.085,48.644-140.014,79.547-233.805,79.547
		c-93.79,0-177.71-30.903-233.796-79.547c-1.245-9.878-1.883-19.94-1.883-30.149c0-131.065,105.521-237.309,235.679-237.309
		C551.107,371.987,656.628,478.23,656.628,609.296z"/>
	<g>
		<path d="M420.942,447.905c-92.722,0-168.157-75.435-168.157-168.157c0-92.722,75.435-168.156,168.157-168.156
			c92.722,0,168.156,75.435,168.156,168.156C589.098,372.47,513.663,447.905,420.942,447.905z"/>
		<path fill="#FFFFFF" d="M420.942,124.092c85.967,0,155.656,69.689,155.656,155.656s-69.689,155.657-155.656,155.657
			s-155.657-69.69-155.657-155.657S334.975,124.092,420.942,124.092 M420.942,99.092c-24.377,0-48.039,4.78-70.327,14.207
			c-21.516,9.1-40.833,22.123-57.417,38.706c-16.583,16.583-29.606,35.9-38.706,57.416c-9.427,22.289-14.208,45.95-14.208,70.328
			s4.78,48.039,14.208,70.328c9.1,21.515,22.123,40.833,38.706,57.416c16.583,16.583,35.901,29.606,57.416,38.707
			c22.289,9.427,45.95,14.207,70.328,14.207c24.378,0,48.039-4.78,70.327-14.207c21.516-9.101,40.833-22.123,57.416-38.707
			c16.583-16.583,29.605-35.901,38.706-57.417c9.427-22.288,14.207-45.95,14.207-70.327s-4.78-48.039-14.207-70.327
			c-9.101-21.516-22.123-40.833-38.706-57.416s-35.9-29.606-57.416-38.706C468.981,103.872,445.32,99.092,420.942,99.092
			L420.942,99.092z"/>
	</g>
</g>
</svg>
