<?xml version="1.0" encoding="utf-8"?>
<!-- Generator: Adobe Illustrator 16.0.0, SVG Export Plug-In . SVG Version: 6.00 Build 0)  -->
<!DOCTYPE svg PUBLIC "-//W3C//DTD SVG 1.1//EN" "http://www.w3.org/Graphics/SVG/1.1/DTD/svg11.dtd">
<svg version="1.1" id="Calque_1" xmlns="http://www.w3.org/2000/svg" xmlns:xlink="http://www.w3.org/1999/xlink" x="0px" y="0px"
	 width="841.889px" height="843.084px" viewBox="0 0 841.889 843.084" enable-background="new 0 0 841.889 843.084"
	 xml:space="preserve">
<g>
	<path d="M542.531,394.581c-17.923,26.26-41.194,47.429-69.173,62.917c-47.344,26.211-102.061,32.416-154.071,17.472
		c-52.012-14.944-95.091-49.248-121.299-96.594c-37.307-67.387-33.496-148.796,9.949-212.456
		c17.921-26.259,41.193-47.427,69.171-62.915c97.732-54.108,221.264-18.613,275.371,79.122
		C589.786,249.516,585.976,330.923,542.531,394.581z M269.521,207.949c-27.47,40.252-29.885,91.719-6.303,134.316
		c16.565,29.92,43.788,51.6,76.659,61.044c32.871,9.444,67.45,5.522,97.373-11.041c17.697-9.798,32.399-23.161,43.697-39.716
		c27.47-40.251,29.886-91.718,6.305-134.314c-34.196-61.767-112.267-84.197-174.031-50.003
		C295.521,178.033,280.818,191.395,269.521,207.949z"/>
	<path d="M665.666,698.315c10.274,18.562-1.219,44.579-25.667,58.116l-1.756,0.972c-24.45,13.537-52.597,9.464-62.873-9.098
		l-158.834-286.9c-10.271-18.562,1.219-44.577,25.668-58.114l1.754-0.971c24.451-13.538,52.602-9.464,62.876,9.095L665.666,698.315z
		"/>
</g>
</svg>
