<?xml version="1.0" encoding="utf-8"?>
<!-- Generator: Adobe Illustrator 16.0.0, SVG Export Plug-In . SVG Version: 6.00 Build 0)  -->
<!DOCTYPE svg PUBLIC "-//W3C//DTD SVG 1.1//EN" "http://www.w3.org/Graphics/SVG/1.1/DTD/svg11.dtd">
<svg version="1.1" id="Calque_1" xmlns="http://www.w3.org/2000/svg" xmlns:xlink="http://www.w3.org/1999/xlink" x="0px" y="0px"
	 width="841.889px" height="843.084px" viewBox="0 0 841.889 843.084" enable-background="new 0 0 841.889 843.084"
	 xml:space="preserve">
<g>
	<path d="M736.414,709.2c0,17.861-14.48,32.342-32.342,32.342H137.817c-17.862,0-32.342-14.48-32.342-32.342V142.944
		c0-17.862,14.479-32.342,32.342-32.342h427.457c17.861,0,171.141,136.165,171.141,154.027V709.2z"/>
	<path fill="#FFFFFF" d="M478.562,232.287c0,17.861-13.399,32.342-29.929,32.342H225.537c-16.529,0-29.928-14.48-29.928-32.342
		V93.884c0-17.862,13.399-32.342,29.928-32.342h223.096c16.529,0,29.929,14.479,29.929,32.342V232.287z"/>
	<path d="M439.77,221.075c0,8.931-3.349,16.171-7.481,16.171h-55.774c-4.133,0-7.482-7.24-7.482-16.171v-69.202
		c0-8.931,3.349-16.171,7.482-16.171h55.774c4.133,0,7.481,7.24,7.481,16.171V221.075z"/>
	<path fill="#FFFFFF" d="M646.851,608.798c0,17.861-14.48,32.342-32.342,32.342H227.38c-17.862,0-32.342-14.48-32.342-32.342
		V404.219c0-17.861,14.48-32.342,32.342-32.342h387.129c17.861,0,32.342,14.48,32.342,32.342V608.798z"/>
</g>
</svg>
