<?xml version="1.0" encoding="utf-8"?>
<!-- Generator: Adobe Illustrator 16.0.0, SVG Export Plug-In . SVG Version: 6.00 Build 0)  -->
<!DOCTYPE svg PUBLIC "-//W3C//DTD SVG 1.1//EN" "http://www.w3.org/Graphics/SVG/1.1/DTD/svg11.dtd">
<svg version="1.1" id="Calque_1" xmlns="http://www.w3.org/2000/svg" xmlns:xlink="http://www.w3.org/1999/xlink" x="0px" y="0px"
	 width="841.889px" height="843.084px" viewBox="0 0 841.889 843.084" enable-background="new 0 0 841.889 843.084"
	 xml:space="preserve">
<g>
	<path d="M560.202,421.601c0,10.136-4.873,19.133-12.375,24.753l-262.187,200.9c-0.569,0.447-1.168,0.896-1.764,1.346
		c-4.755,3.378-10.583,5.381-16.892,5.381c-16.083,0-29.148-13.034-29.148-29.147V218.251c0-16.083,13.065-29.148,29.148-29.148
		c5.83,0,11.301,1.734,15.844,4.693c0.029,0,0.029,0,0.029,0.03l3.439,2.631l261.53,200.392
		C555.329,402.469,560.202,411.467,560.202,421.601z"/>
	<path d="M604.052,635.806c0,10.038-10.205,18.175-22.793,18.175l0,0c-12.588,0-22.795-8.137-22.795-18.175V207.278
		c0-10.038,10.207-18.175,22.795-18.175l0,0c12.588,0,22.793,8.137,22.793,18.175V635.806z"/>
</g>
</svg>
